<?xml version="1.0" standalone="no"?>
<!DOCTYPE svg PUBLIC "-//W3C//DTD SVG 20010904//EN"
 "http://www.w3.org/TR/2001/REC-SVG-20010904/DTD/svg10.dtd">
<svg version="1.0" xmlns="http://www.w3.org/2000/svg"
 width="640.000000pt" height="1280.000000pt" viewBox="0 0 640.000000 1280.000000"
 preserveAspectRatio="xMidYMid meet">
<metadata>
Created by potrace 1.15, written by Peter Selinger 2001-2017
</metadata>
<g transform="translate(0.000000,1280.000000) scale(0.100000,-0.100000)"
fill="#0f1113" stroke="none">
<path d="M3000 12789 c-116 -12 -226 -44 -327 -94 l-93 -46 0 -626 0 -625 28
7 c181 48 503 73 724 57 141 -10 361 -40 435 -58 l23 -6 0 625 0 625 -77 40
c-102 52 -186 80 -303 97 -101 16 -287 18 -410 4z m327 -217 c84 -44 149 -120
174 -204 15 -51 12 -154 -6 -209 -23 -68 -108 -159 -177 -190 -77 -34 -193
-33 -268 2 -272 127 -254 510 29 616 55 21 195 12 248 -15z"/>
<path d="M3109 12377 c-126 -85 -9 -288 127 -221 52 26 77 64 77 116 0 106
-115 165 -204 105z"/>
<path d="M2815 11329 c-220 -21 -618 -106 -689 -147 -107 -63 -101 -214 11
-264 39 -17 53 -19 87 -10 23 6 102 26 176 45 498 130 1142 118 1665 -30 92
-26 94 -26 139 -9 66 25 91 65 91 143 0 52 -4 66 -25 88 -36 39 -66 52 -197
86 -160 41 -367 76 -552 94 -166 16 -553 18 -706 4z"/>
<path d="M2850 10948 c-567 -52 -1046 -240 -1320 -518 -133 -134 -210 -271
-245 -440 -15 -73 -21 -285 -7 -293 4 -2 57 2 117 9 500 62 981 87 1655 88
658 0 1142 -22 1830 -83 113 -10 208 -16 213 -14 11 6 8 232 -4 299 -72 393
-472 715 -1078 869 -137 35 -357 71 -506 84 -141 13 -519 12 -655 -1z"/>
<path d="M2615 9690 c-941 -32 -1578 -120 -1762 -244 -100 -68 -129 -185 -69
-276 35 -53 69 -73 121 -73 55 0 102 28 138 81 23 34 38 44 80 56 194 55 597
105 1102 136 562 35 1690 27 2190 -15 350 -30 572 -58 757 -96 135 -27 170
-42 192 -84 49 -90 163 -106 233 -33 39 41 53 76 53 134 0 87 -54 154 -165
204 -204 93 -700 162 -1430 200 -272 14 -1146 20 -1440 10z"/>
<path d="M2545 9314 c-517 -17 -961 -61 -1298 -130 l-117 -24 -54 -55 c-30
-30 -59 -55 -65 -55 -8 0 -11 -1143 -11 -4055 l0 -4054 29 -15 c39 -21 76 -67
116 -146 34 -67 34 -67 117 -102 428 -183 955 -249 1988 -251 323 0 573 4 670
11 424 34 709 82 1020 172 58 16 122 35 142 40 56 16 92 52 132 134 36 73 76
112 134 130 l22 7 0 4074 c0 3558 -2 4074 -15 4078 -8 4 -25 23 -39 45 -24 38
-24 39 -152 65 -313 65 -550 92 -1029 118 -183 10 -1384 20 -1590 13z"/>
<path d="M830 822 c-19 -10 -46 -34 -58 -53 -21 -30 -23 -43 -20 -104 17 -260
321 -435 955 -549 380 -69 781 -103 1323 -113 963 -17 1834 91 2238 278 205
95 322 227 322 367 0 70 -21 114 -69 140 -98 55 -207 3 -225 -108 -5 -31 -14
-45 -49 -68 -187 -129 -588 -223 -1173 -276 -576 -53 -1378 -45 -1944 19 -608
69 -1058 211 -1085 342 -9 45 -38 95 -66 116 -39 28 -106 32 -149 9z"/>
</g>
</svg>
